#!OML:ASF F:\VICON\USERDATA\INSTALL\rory3\rory3.ASF
:FULLY-SPECIFIED
:DEGREES
3240
root 0.45425 17.8531 -0.745963 3.03284 -7.22587 3.99262
lowerback 4.5295 1.11963 0.120835
upperback 0.417528 1.55723 2.72585
thorax -2.18312 0.786243 2.63783
lowerneck -23.2653 -4.90135 -8.90696
upperneck 23.3632 -5.88172 7.74299
head 12.0604 -2.42719 3.38917
rclavicle -1.31198e-014 1.27222e-014
rhumerus 31.7468 8.46058 -73.0215
rradius 87.3108
rwrist -45.2142
rhand -21.5684 5.25806
rfingers 7.12502
rthumb 4.82556 -24.667
lclavicle -1.31198e-014 1.27222e-014
lhumerus 29.1186 -12.2943 73.78
lradius 85.6855
lwrist 43.9588
lhand -18.8381 22.0227
lfingers 7.12502
lthumb 7.46146 411.871
rfemur -25.7274 -0.306281 14.0063
rtibia 28.3576
rfoot -4.16797 -0.819107
rtoes 13.948
lfemur -0.93547 -9.23208 -19.1499
ltibia 30.0442
lfoot -8.61371 -8.88954
ltoes -19.3265
3241
root 0.405239 17.8681 -0.68558 3.03779 -7.1699 4.09896
lowerback 4.30031 1.13852 0.186603
upperback 0.555011 1.57661 2.6536
thorax -1.91035 0.793055 2.53045
lowerneck -23.2784 -4.94527 -8.77076
upperneck 23.1569 -5.96691 7.69973
head 11.9851 -2.45785 3.32997
rclavicle -1.76918e-014 -3.33958e-014
rhumerus 30.9108 8.39678 -72.7894
rradius 90.0647
rwrist -41.7061
rhand -22.1936 6.10325
rfingers 7.12502
rthumb 4.2218 -23.8347
lclavicle -1.76918e-014 -3.33958e-014
lhumerus 28.0028 -12.7121 73.3325
lradius 88.6533
lwrist 39.0958
lhand -20.077 21.889
lfingers 7.12502
lthumb 6.26545 411.776
rfemur -25.4732 -0.536297 14.0667
rtibia 28.3686
rfoot -4.49852 -0.489636
rtoes 13.6249
lfemur -0.938167 -9.43381 -19.1376
ltibia 30.2451
lfoot -7.89184 -8.83314
ltoes -18.9092
3242
root 0.35403 17.8804 -0.629981 3.09777 -7.13941 4.13674
lowerback 4.4264 1.15013 0.1555
upperback 0.411156 1.59693 2.6753
thorax -2.13129 0.805353 2.56534
lowerneck -23.1915 -4.93286 -8.64256
upperneck 23.2085 -5.96628 7.55573
head 11.9782 -2.46661 3.25517
rclavicle -1.0138e-014 -7.95139e-015
rhumerus 29.5754 8.56106 -72.487
rradius 92.8899
rwrist -37.8999
rhand -23.1202 6.92674
rfingers 7.12502
rthumb 3.32701 -23.027
lclavicle -1.0138e-014 -7.95139e-015
lhumerus 26.2589 -13.1634 73.1577
lradius 91.5646
lwrist 33.7093
lhand -21.5565 21.0295
lfingers 7.12502
lthumb 4.837 410.954
rfemur -25.2608 -0.669617 14.2099
rtibia 28.3374
rfoot -4.74003 -0.261966
rtoes 13.2127
lfemur -1.0463 -9.46429 -18.9866
ltibia 30.5126
lfoot -7.21192 -9.03328
ltoes -18.705
3243
root 0.304333 17.891 -0.577468 3.1979 -7.10766 4.04446
lowerback 4.35936 1.11963 0.39158
upperback 0.431614 1.56529 2.65037
thorax -2.06422 0.786911 2.41023
lowerneck -23.3337 -4.89752 -8.57445
upperneck 23.2249 -5.95375 7.6378
head 12.0115 -2.44089 3.27684
rclavicle 7.35503e-015 1.59028e-014
rhumerus 28.4272 8.74994 -72.2204
rradius 95.6348
rwrist -33.6894
rhand -24.3404 7.73421
rfingers 7.12502
rthumb 2.14865 -22.2347
lclavicle 7.35503e-015 1.59028e-014
lhumerus 24.8961 -13.5521 72.7869
lradius 94.2907
lwrist 27.8556
lhand -23.9539 20.4615
lfingers 7.12502
lthumb 2.52189 410.426
rfemur -25.0931 -0.874216 14.5197
rtibia 28.279
rfoot -4.87865 0.00290695
rtoes 12.7769
lfemur -1.20864 -9.36449 -18.6733
ltibia 30.8149
lfoot -6.79672 -9.45147
ltoes -20.1638
3244
root 0.254481 17.9029 -0.524842 3.25473 -7.01197 3.90917
lowerback 4.45793 1.08552 0.473106
upperback 0.380698 1.53058 2.8082
thorax -2.17277 0.770071 2.52736
lowerneck -23.4711 -4.89576 -8.68713
upperneck 23.361 -5.90675 7.63985
head 12.0903 -2.42686 3.30681
rclavicle 2.92213e-014 1.90833e-014
rhumerus 27.2024 9.11791 -71.6973
rradius 98.2518
rwrist -29.0222
rhand -25.7012 8.20608
rfingers 7.12502
rthumb 0.834381 -21.772
lclavicle 2.92213e-014 1.90833e-014
lhumerus 23.3876 -13.9069 72.7489
lradius 96.9236
lwrist 21.6452
lhand -26.5898 20.6581
lfingers 7.12502
lthumb -0.023868 410.638
rfemur -24.8619 -1.0945 14.8645
rtibia 28.2151
rfoot -5.06215 0.186743
rtoes 12.9353
lfemur -1.33375 -9.36227 -18.3302
ltibia 31.1148
lfoot -6.50471 -9.86151
ltoes -22.0555
3245
root 0.20664 17.9178 -0.474107 3.28277 -6.86432 3.8741
lowerback 4.22199 1.03569 0.671901
upperback 0.582178 1.46174 2.77822
thorax -1.82475 0.73203 2.39466
lowerneck -23.6672 -4.89484 -8.53899
upperneck 23.2075 -5.91757 7.5874
head 12.0624 -2.42055 3.25538
rclavicle 2.78299e-014 3.02153e-014
rhumerus 26.2273 9.32134 -71.3264
rradius 100.702
rwrist -23.7513
rhand -27.5872 8.79599
rfingers 7.12502
rthumb -0.987184 -21.1815
lclavicle 2.78299e-014 3.02153e-014
lhumerus 22.2638 -14.3104 72.3913
lradius 99.4414
lwrist 15.2054
lhand -28.4405 21.2256
lfingers 7.12502
lthumb -1.81132 411.198
rfemur -24.6201 -1.33339 15.0779
rtibia 28.1686
rfoot -5.27677 0.340627
rtoes 13.0641
lfemur -1.46465 -9.53269 -18.116
ltibia 31.3941
lfoot -5.98292 -10.1605
ltoes -22.6192
3246
root 0.161237 17.9298 -0.422133 3.29582 -6.8383 3.9063
lowerback 4.42572 1.03542 0.55377
upperback 0.463943 1.46671 2.90764
thorax -2.06709 0.737094 2.59004
lowerneck -23.5918 -4.88888 -8.50818
upperneck 23.2145 -5.86273 7.36513
head 12.0358 -2.42419 3.17541
rclavicle 9.34288e-015 1.90833e-014
rhumerus 24.6853 9.77749 -70.7387
rradius 103.169
rwrist -18.3276
rhand -29.7358 9.13607
rfingers 7.12502
rthumb -3.06229 -20.8217
lclavicle 9.34288e-015 1.90833e-014
lhumerus 20.4774 -14.7835 72.4628
lradius 101.767
lwrist 8.16933
lhand -30.3919 21.5334
lfingers 7.12502
lthumb -3.69588 411.481
rfemur -24.4095 -1.61067 15.2286
rtibia 28.1506
rfoot -5.37348 0.650079
rtoes 12.7599
lfemur -1.5506 -9.59414 -18.0146
ltibia 31.6567
lfoot -5.3877 -10.3351
ltoes -22.7389
